<?xml version="1.0" standalone="no"?>
<!DOCTYPE svg PUBLIC "-//W3C//DTD SVG 20010904//EN"
 "http://www.w3.org/TR/2001/REC-SVG-20010904/DTD/svg10.dtd">
<svg version="1.0" xmlns="http://www.w3.org/2000/svg"
 width="500.000000pt" height="500.000000pt" viewBox="0 0 500.000000 500.000000"
 preserveAspectRatio="xMidYMid meet">

<g transform="translate(0.000000,500.000000) scale(0.100000,-0.100000)"
fill="#000000" stroke="none">
<path d="M2625 4279 c-338 -31 -605 -88 -835 -178 -73 -29 -194 -92 -198 -102
-2 -5 -8 -9 -14 -9 -20 0 -135 -89 -176 -136 -98 -114 -146 -255 -146 -439 0
-137 14 -201 71 -305 125 -230 402 -384 883 -489 30 -6 71 -16 90 -21 19 -4
58 -13 85 -18 28 -6 73 -16 100 -21 76 -16 197 -41 225 -45 171 -29 407 -103
522 -163 87 -46 170 -130 211 -213 30 -61 32 -72 32 -175 0 -119 -18 -190 -76
-307 -16 -32 -29 -60 -29 -64 0 -18 179 150 251 237 91 109 176 265 219 401
25 81 28 268 4 343 -9 28 -16 55 -18 60 -5 31 -73 133 -116 175 -115 115 -320
208 -635 290 -66 18 -129 33 -140 35 -47 8 -154 31 -215 45 -19 5 -62 14 -95
20 -242 48 -520 124 -645 177 -172 73 -232 133 -216 219 9 43 84 122 149 156
60 32 186 88 205 92 10 2 24 5 32 8 16 6 75 22 138 37 292 73 675 84 1032 32
202 -30 415 -98 603 -192 81 -41 100 -47 111 -37 7 8 41 38 76 68 34 30 69 61
76 68 7 6 15 12 17 12 3 0 22 16 43 37 l38 36 -29 23 c-16 12 -87 52 -159 87
-189 93 -433 179 -593 208 -29 5 -79 14 -110 19 -192 35 -551 49 -768 29z"/>
<path d="M1300 2710 c0 -21 82 -175 125 -235 54 -75 161 -179 242 -233 34 -23
64 -42 67 -42 3 0 27 -13 53 -28 115 -68 376 -158 642 -223 112 -27 237 -60
277 -74 187 -63 269 -177 234 -327 -38 -165 -189 -347 -345 -417 -16 -7 -38
-17 -47 -22 -26 -13 -22 -4 21 54 89 119 96 271 17 350 -37 37 -113 70 -319
138 -198 65 -338 127 -409 182 -27 20 -48 35 -48 32 0 -3 19 -44 42 -91 52
-105 119 -180 229 -258 134 -95 185 -142 208 -191 26 -56 27 -99 1 -167 -23
-61 -54 -99 -125 -153 l-50 -38 100 6 c191 11 337 52 527 149 108 55 189 114
275 199 260 258 302 534 109 711 -77 70 -248 141 -451 187 -96 22 -304 67
-345 75 -14 3 -47 10 -75 16 -114 25 -142 31 -173 37 -18 3 -35 9 -38 14 -3 5
-15 9 -26 9 -20 0 -63 12 -113 30 -11 4 -40 14 -65 21 -25 7 -49 15 -55 19 -5
3 -28 12 -50 19 -109 37 -336 168 -407 236 -16 14 -28 21 -28 15z"/>
</g>
</svg>
